# xmcd CD database file
# Copyright (C) 1995-1998 Ti Kan
#
# Track frame offsets:
#	150
#	11610
#	27780
#	45952
#	57423
#	74076
#	89507
#	108590
#	124493
#	136571
#	155495
#	172114
#	189475
#	204000
#	221446
#	235076
#	251443
#	262358
#	284565
#	301057
#	319853
#	333892
#
# Disc length: 4657 seconds
#
# Revision: 1
# Processed by: cddbd v1.4b41PL1 Copyright (c) Steve Scherf et al.
# Submitted via: CDex 1.30
#
DISCID=3f122f16
DTITLE=Golec uOrkiestra - Golec uOrkiestra
DYEAR=2001
DGENRE=Country
TTITLE0=Dyplomy
TTITLE1=¦ciernisko
TTITLE2=S³odycze
TTITLE3=Pienidze to nie wszystko
TTITLE4=Oni s z nami
TTITLE5=Tattoo
TTITLE6=Ty i tylko ty
TTITLE7=Szarpany
TTITLE8=Walizeczka
TTITLE9=Do Milówki wróc
TTITLE10=Halny
TTITLE11=Piosenka ³o nicym
TTITLE12=Kochom Ciebie dziywcyno
TTITLE13=Kuku
TTITLE14=Cazy is my life
TTITLE15=Ej Janicku ka ze¶ jes
TTITLE16=UFO
TTITLE17=Lornetka
TTITLE18=Szafa
TTITLE19=Cha³pa sie poli³a
TTITLE20=Wyse³
TTITLE21=Na holi
EXTD=\nYEAR: 2001  ID3G:   2
EXTT0=
EXTT1=
EXTT2=
EXTT3=
EXTT4=
EXTT5=
EXTT6=
EXTT7=
EXTT8=
EXTT9=
EXTT10=
EXTT11=
EXTT12=
EXTT13=
EXTT14=
EXTT15=
EXTT16=
EXTT17=
EXTT18=
EXTT19=
EXTT20=
EXTT21=
PLAYORDER=
